#!OML:ASF X:\für Bonn\!DataBase\2005_08_12_Daniel\c3d\Daniel.ASF
:FULLY-SPECIFIED
:DEGREES
158
root 4.38735 17.0022 -1.98871 -340.38 -82.664 333.787
lowerback 9.45984 -6.42465 10.9475
upperback 3.32983 -7.62764 1.66144
thorax -2.92527 -3.86956 -3.34994
lowerneck 9.14489 14.3362 -3.2497
upperneck 12.9155 19.1705 -12.3331
head 3.39293 8.7165 -3.12541
rclavicle -1.32192e-014 5.56597e-015
rhumerus -44.0566 10.1306 -96.3071
rradius 81.9571
rwrist 6.5862
rhand -19.3626 30.6247
rfingers 7.12502
rthumb 6.95513 0.758981
lclavicle -1.32192e-014 5.56597e-015
lhumerus -36.1852 -0.38122 88.3665
lradius 131.28
lwrist 10.2212
lhand -19.5762 -26.9247
lfingers 7.12502
lthumb 6.74895 2.94773
rfemur -13.8799 -2.80475 23.9064
rtibia 42.2831
rfoot -32.5308 -17.5095
rtoes -3.08366
lfemur -3.22574 -3.93475 -12.1306
ltibia 44.767
lfoot -36.3405 11.1182
ltoes -21.1126
159
root 4.40401 17.0058 -1.96046 -341.046 -82.4533 334.58
lowerback 9.47009 -6.43192 10.8527
upperback 3.23852 -7.63369 1.75083
thorax -3.00544 -3.8776 -3.19802
lowerneck 9.1689 14.3155 -2.96548
upperneck 12.5947 19.1716 -12.6259
head 3.34106 8.75136 -3.25707
rclavicle 3.10104e-014 -1.03368e-014
rhumerus -44.0137 10.4747 -96.6869
rradius 82.8515
rwrist 6.47084
rhand -19.3893 30.8118
rfingers 7.12502
rthumb 6.92937 0.945239
lclavicle 3.10104e-014 -1.03368e-014
lhumerus -36.3928 -0.561722 88.2435
lradius 131.336
lwrist 10.1424
lhand -19.616 -26.6646
lfingers 7.12502
lthumb 6.71048 3.20909
rfemur -14.0619 -3.06423 23.7413
rtibia 42.28
rfoot -32.4025 -17.4845
rtoes -3.09374
lfemur -3.42191 -4.17881 -12.3114
ltibia 44.7057
lfoot -36.3857 11.2113
ltoes -21.0011
160
root 4.42114 17.0089 -1.93199 -341.595 -82.2694 335.248
lowerback 9.49165 -6.43337 10.773
upperback 3.16013 -7.6307 1.82395
thorax -3.08076 -3.88052 -3.07219
lowerneck 9.16907 14.2888 -2.66261
upperneck 12.2826 19.1698 -12.9199
head 3.29718 8.78397 -3.38936
rclavicle 1.30204e-014 1.59028e-015
rhumerus -43.9498 10.8415 -97.0627
rradius 83.6989
rwrist 6.35205
rhand -19.447 30.9934
rfingers 7.12502
rthumb 6.87362 1.12503
lclavicle 1.30204e-014 1.59028e-015
lhumerus -36.5878 -0.747747 88.1082
lradius 131.406
lwrist 10.0897
lhand -19.6138 -26.3875
lfingers 7.12502
lthumb 6.71268 3.48607
rfemur -14.239 -3.30217 23.574
rtibia 42.2798
rfoot -32.276 -17.4362
rtoes -3.00246
lfemur -3.60352 -4.39191 -12.4837
ltibia 44.6468
lfoot -36.4253 11.286
ltoes -20.9283
161
root 4.43955 17.0121 -1.90381 -342.144 -82.1099 335.895
lowerback 9.5508 -6.4241 10.6693
upperback 3.09336 -7.6122 1.89644
thorax -3.15945 -3.87555 -2.93348
lowerneck 9.13998 14.2667 -2.40577
upperneck 11.987 19.1692 -13.1501
head 3.25343 8.81499 -3.49456
rclavicle 5.36719e-015 3.02153e-014
rhumerus -43.8781 11.1803 -97.4257
rradius 84.5177
rwrist 6.21609
rhand -19.49 31.1454
rfingers 7.12502
rthumb 6.83215 1.27565
lclavicle 5.36719e-015 3.02153e-014
lhumerus -36.7787 -0.940957 88.0167
lradius 131.45
lwrist 9.99808
lhand -19.6139 -26.1511
lfingers 7.12502
lthumb 6.71257 3.7225
rfemur -14.4061 -3.53297 23.3999
rtibia 42.2822
rfoot -32.0947 -17.4083
rtoes -2.95839
lfemur -3.7646 -4.5942 -12.6596
ltibia 44.5941
lfoot -36.4273 11.3244
ltoes -20.7185
162
root 4.45887 17.0149 -1.87509 -342.612 -81.9678 336.445
lowerback 9.6412 -6.41156 10.5736
upperback 3.02811 -7.58485 1.95947
thorax -3.25484 -3.86661 -2.80697
lowerneck 9.14703 14.2369 -2.09608
upperneck 11.6833 19.1601 -13.4136
head 3.20875 8.84463 -3.61958
rclavicle 2.47487e-014 -1.59028e-014
rhumerus -43.8679 11.5365 -97.7842
rradius 85.333
rwrist 6.11205
rhand -19.6328 31.3526
rfingers 7.12502
rthumb 6.69434 1.47838
lclavicle 2.47487e-014 -1.59028e-014
lhumerus -36.9642 -1.13037 87.9331
lradius 131.483
lwrist 9.94706
lhand -19.5841 -25.9113
lfingers 7.12502
lthumb 6.74136 3.96136
rfemur -14.5634 -3.77699 23.2204
rtibia 42.2838
rfoot -31.925 -17.3545
rtoes -2.94954
lfemur -3.91709 -4.77654 -12.8271
ltibia 44.5476
lfoot -36.4251 11.3496
ltoes -20.5504
163
root 4.47838 17.0174 -1.84655 -343.042 -81.8652 336.959
lowerback 9.73946 -6.38938 10.4601
upperback 2.96601 -7.54602 2.0157
thorax -3.34869 -3.8516 -2.67938
lowerneck 9.15018 14.2059 -1.79519
upperneck 11.3766 19.1472 -13.6757
head 3.16283 8.87175 -3.7431
rclavicle 1.73937e-014 -2.94201e-014
rhumerus -43.8504 11.8961 -98.1339
rradius 86.1003
rwrist 6.0069
rhand -19.8021 31.5227
rfingers 7.12502
rthumb 6.5309 1.64343
lclavicle 1.73937e-014 -2.94201e-014
lhumerus -37.1404 -1.27656 87.8799
lradius 131.482
lwrist 9.87422
lhand -19.496 -25.7288
lfingers 7.12502
lthumb 6.8264 4.14119
rfemur -14.7289 -3.98397 23.038
rtibia 42.2872
rfoot -31.7322 -17.3207
rtoes -2.91503
lfemur -4.06117 -4.93431 -13.0071
ltibia 44.5095
lfoot -36.4129 11.3869
ltoes -20.3523
164
root 4.49843 17.0205 -1.81711 -343.421 -81.7748 337.406
lowerback 9.87283 -6.36584 10.3478
upperback 2.89846 -7.50042 2.07934
thorax -3.46605 -3.83407 -2.54162
lowerneck 9.17871 14.1831 -1.5233
upperneck 11.065 19.136 -13.9051
head 3.10637 8.90049 -3.85572
rclavicle 1.39149e-015 3.73715e-014
rhumerus -43.8859 12.3141 -98.4184
rradius 86.8868
rwrist 5.80916
rhand -19.9574 31.6763
rfingers 7.12502
rthumb 6.38091 1.79245
lclavicle 1.39149e-015 3.73715e-014
lhumerus -37.3333 -1.41705 87.8883
lradius 131.461
lwrist 9.79635
lhand -19.4262 -25.5446
lfingers 7.12502
lthumb 6.89378 4.32319
rfemur -14.881 -4.22866 22.8501
rtibia 42.2897
rfoot -31.5237 -17.2577
rtoes -3.01257
lfemur -4.19232 -5.1316 -13.1956
ltibia 44.4793
lfoot -36.4284 11.4341
ltoes -20.2102
165
root 4.51823 17.0231 -1.78813 -343.716 -81.7258 337.746
lowerback 10.0181 -6.32999 10.2219
upperback 2.86096 -7.44205 2.13853
thorax -3.5556 -3.80855 -2.4044
lowerneck 9.17264 14.1609 -1.25487
upperneck 10.7595 19.1292 -14.1382
head 3.0577 8.92918 -3.96593
rclavicle 5.56597e-014 -7.95139e-016
rhumerus -43.8975 12.7538 -98.6904
rradius 87.6513
rwrist 5.57267
rhand -20.088 31.7401
rfingers 7.12502
rthumb 6.25482 1.85244
lclavicle 5.56597e-014 -7.95139e-016
lhumerus -37.4835 -1.56631 87.9071
lradius 131.41
lwrist 9.71297
lhand -19.3858 -25.4233
lfingers 7.12502
lthumb 6.93276 4.44319
rfemur -15.0122 -4.39363 22.6675
rtibia 42.29
rfoot -31.3197 -17.207
rtoes -2.90751
lfemur -4.28838 -5.25928 -13.37
ltibia 44.4552
lfoot -36.4232 11.4431
ltoes -20.0031
166
root 4.53774 17.0264 -1.75899 -344.068 -81.6872 338.159
lowerback 10.1541 -6.28689 10.0904
upperback 2.80958 -7.37466 2.18795
thorax -3.65487 -3.77877 -2.27603
lowerneck 9.18883 14.1322 -0.976951
upperneck 10.474 19.1127 -14.3628
head 3.01112 8.95254 -4.07655
rclavicle 2.39536e-014 -2.06736e-014
rhumerus -43.975 13.161 -98.9705
rradius 88.4298
rwrist 5.38081
rhand -20.2148 31.7444
rfingers 7.12502
rthumb 6.13242 1.85311
lclavicle 2.39536e-014 -2.06736e-014
lhumerus -37.6693 -1.71918 87.9384
lradius 131.343
lwrist 9.64963
lhand -19.3517 -25.3857
lfingers 7.12502
lthumb 6.96566 4.47964
rfemur -15.159 -4.61213 22.4669
rtibia 42.2889
rfoot -31.0733 -17.1154
rtoes -2.93493
lfemur -4.40262 -5.38621 -13.5621
ltibia 44.434
lfoot -36.4056 11.4675
ltoes -19.759
167
root 4.55788 17.0294 -1.73036 -344.382 -81.6617 338.521
lowerback 10.3239 -6.24872 9.96307
upperback 2.75595 -7.30938 2.22804
thorax -3.77735 -3.75058 -2.15537
lowerneck 9.23642 14.1169 -0.742329
upperneck 10.1624 19.0994 -14.5326
head 2.94348 8.98023 -4.1691
rclavicle -5.85421e-014 1.59028e-015
rhumerus -44.1274 13.5638 -99.2803
rradius 89.2251
rwrist 5.20551
rhand -20.3266 31.6662
rfingers 7.12502
rthumb 6.02453 1.77187
lclavicle -5.85421e-014 1.59028e-015
lhumerus -37.8975 -1.87981 88.0261
lradius 131.279
lwrist 9.61477
lhand -19.3469 -25.4347
lfingers 7.12502
lthumb 6.97032 4.43049
rfemur -15.2875 -4.7616 22.277
rtibia 42.2795
rfoot -30.8532 -17.0352
rtoes -2.85751
lfemur -4.50032 -5.50511 -13.7442
ltibia 44.4149
lfoot -36.3802 11.4758
ltoes -19.5047
168
root 4.57786 17.0325 -1.70091 -344.739 -81.653 338.913
lowerback 10.4902 -6.20655 9.84008
upperback 2.72509 -7.24178 2.25416
thorax -3.87611 -3.71991 -2.05417
lowerneck 9.25477 14.0979 -0.535999
upperneck 9.86058 19.0794 -14.6668
head 2.87727 9.00237 -4.24528
rclavicle -1.12313e-014 -2.62396e-014
rhumerus -44.2915 13.9388 -99.6079
rradius 90.0118
rwrist 5.04454
rhand -20.3979 31.5492
rfingers 7.12502
rthumb 5.95569 1.65293
lclavicle -1.12313e-014 -2.62396e-014
lhumerus -38.0792 -2.04132 88.1208
lradius 131.16
lwrist 9.55884
lhand -19.3855 -25.5573
lfingers 7.12502
lthumb 6.93301 4.30913
rfemur -15.4029 -4.95929 22.0702
rtibia 42.265
rfoot -30.6008 -16.9208
rtoes -2.89289
lfemur -4.58307 -5.62607 -13.9458
ltibia 44.3971
lfoot -36.3584 11.5105
ltoes -19.2616
169
root 4.59738 17.0361 -1.67219 -345.071 -81.6516 339.289
lowerback 10.6408 -6.15975 9.72569
upperback 2.69804 -7.17 2.26637
thorax -3.96488 -3.6866 -1.97484
lowerneck 9.27105 14.0785 -0.303702
upperneck 9.5762 19.0629 -14.7883
head 2.81818 9.02598 -4.32037
rclavicle 9.8299e-014 -2.62396e-014
rhumerus -44.4691 14.2527 -99.9757
rradius 90.7614
rwrist 4.95631
rhand -20.4703 31.4225
rfingers 7.12502
rthumb 5.88576 1.52423
lclavicle 9.8299e-014 -2.62396e-014
lhumerus -38.284 -2.22566 88.2306
lradius 131.057
lwrist 9.51197
lhand -19.445 -25.711
lfingers 7.12502
lthumb 6.8756 4.1574
rfemur -15.5153 -5.11163 21.8748
rtibia 42.2392
rfoot -30.3566 -16.8166
rtoes -2.87936
lfemur -4.6619 -5.7713 -14.1524
ltibia 44.3822
lfoot -36.3612 11.5547
ltoes -19.0389
170
root 4.61644 17.0396 -1.64354 -345.397 -81.6445 339.644
lowerback 10.8045 -6.12319 9.62299
upperback 2.67592 -7.10994 2.27011
thorax -4.05949 -3.65912 -1.90761
lowerneck 9.33161 14.0619 -0.0921759
upperneck 9.24181 19.0375 -14.9083
head 2.73456 9.04939 -4.39794
rclavicle -6.32135e-014 1.66979e-014
rhumerus -44.6622 14.5929 -100.352
rradius 91.4882
rwrist 4.88011
rhand -20.5718 31.2012
rfingers 7.12502
rthumb 5.78777 1.30025
lclavicle -6.32135e-014 1.66979e-014
lhumerus -38.4603 -2.39109 88.3602
lradius 130.919
lwrist 9.36224
lhand -19.5242 -25.8581
lfingers 7.12502
lthumb 6.79912 4.01269
rfemur -15.6069 -5.24679 21.6838
rtibia 42.2093
rfoot -30.1274 -16.6994
rtoes -2.83485
lfemur -4.72915 -5.91872 -14.352
ltibia 44.3648
lfoot -36.3465 11.6094
ltoes -18.7834
171
root 4.63583 17.0431 -1.61443 -345.708 -81.6437 339.992
lowerback 10.9544 -6.09432 9.5288
upperback 2.65947 -7.06181 2.26913
thorax -4.1436 -3.63708 -1.84972
lowerneck 9.42553 14.0503 0.102892
upperneck 8.85016 19.0084 -15.043
head 2.62822 9.07502 -4.48234
rclavicle 2.41523e-014 -4.77083e-014
rhumerus -44.845 14.9482 -100.723
rradius 92.1629
rwrist 4.7871
rhand -20.637 31.0548
rfingers 7.12502
rthumb 5.72483 1.15216
lclavicle 2.41523e-014 -4.77083e-014
lhumerus -38.6348 -2.50841 88.5423
lradius 130.758
lwrist 9.1362
lhand -19.6202 -26.0839
lfingers 7.12502
lthumb 6.70647 3.78985
rfemur -15.7087 -5.43561 21.4886
rtibia 42.1774
rfoot -29.8607 -16.5733
rtoes -2.88562
lfemur -4.7964 -6.118 -14.5776
ltibia 44.3476
lfoot -36.3544 11.7373
ltoes -18.6098
172
root 4.65432 17.0473 -1.58584 -346.087 -81.6426 340.405
lowerback 11.0955 -6.06561 9.44445
upperback 2.65108 -7.01525 2.24391
thorax -4.2188 -3.61528 -1.82363
lowerneck 9.53413 14.0328 0.293986
upperneck 8.43192 18.9648 -15.1317
head 2.50597 9.09672 -4.55558
rclavicle 5.23798e-014 -1.43125e-014
rhumerus -45.0273 15.2897 -101.103
rradius 92.8108
rwrist 4.65989
rhand -20.6878 30.8497
rfingers 7.12502
rthumb 5.67581 0.945761
lclavicle 5.23798e-014 -1.43125e-014
lhumerus -38.7997 -2.65528 88.7661
lradius 130.586
lwrist 8.75103
lhand -19.7556 -26.2913
lfingers 7.12502
lthumb 6.57573 3.58661
rfemur -15.802 -5.56154 21.2952
rtibia 42.1488
rfoot -29.6333 -16.5309
rtoes -3.00582
lfemur -4.8458 -6.33095 -14.8136
ltibia 44.3204
lfoot -36.3483 11.8699
ltoes -18.3769
